<?xml version="1.0" encoding="utf-8"?>
<!-- Generator: Adobe Illustrator 21.0.0, SVG Export Plug-In . SVG Version: 6.00 Build 0)  -->
<svg version="1.1" xmlns="http://www.w3.org/2000/svg" xmlns:xlink="http://www.w3.org/1999/xlink" x="0px" y="0px"
	 viewBox="0 0 841.9 595.3" style="enable-background:new 0 0 841.9 595.3;" xml:space="preserve">
<style type="text/css">
	.st0{font-family:'ArialNarrow';}
	.st1{font-size:0.3033px;}
	.st2{fill:none;stroke:#000000;stroke-width:3;stroke-linecap:round;stroke-linejoin:round;stroke-miterlimit:10;}
</style>
<g id="TEXT">
	<g id="MTEXT">
		<text transform="matrix(1 0 0 1 0.4118 90.2197)" class="st0 st1">2017.10.23 13:50 - </text>
	</g>
</g>
<g id="NONE">
	<g id="SPLINE_1_">
		<path class="st2" d="M133.1,193.8v-18.7h50v32.7c-3.3-4.2-7.7-7.5-13-10c-5.7-2.6-11.7-3.9-18.2-3.9H133.1z"/>
	</g>
	<g id="LINE_6_">
		<path class="st2" d="M147.1,45.8l-89,154.2c0,0,93.7,0,93.7,0c5.6,0,10.8,1.1,15.6,3.3c4.8,2.2,8.6,5.3,11.4,9.1
			c2.8,3.9,4.2,8,4.2,12.5v137.5h-50v-125H0.4v-37.5c0,0,114.4-198.2,114.4-198.2s21.6,12.5,21.6,12.5c12,6.9,16.1,22.2,9.1,34.1"/>
	</g>
	<g id="LINE_5_">
		<path class="st2" d="M412.8,281.3c0,18,14.6,32.6,32.6,32.6c13.3,0,25.3-8.1,30.3-20.5c0,0,50,0,50,0c-6,39.7-40.1,69.1-80.3,69.1
			c-44.8,0-81.2-36.4-81.2-81.2s36.4-81.2,81.2-81.2s81.2,36.4,81.2,81.2H412.8z"/>
	</g>
	<g id="LINE_4_">
		<path class="st2" d="M258,200.1h-62.5v287.4h25c13.8,0,25-11.2,25-25v-100c0,0,12.5,0,12.5,0c16.7,0,32.4-3.6,46.9-10.9
			c14.5-7.3,25.9-17.2,34.3-29.7c8.4-12.6,12.6-26.1,12.6-40.6c0-14.5-4.2-28.1-12.6-40.6s-19.8-22.5-34.3-29.7
			C290.4,203.7,274.8,200.1,258,200.1z"/>
	</g>
	<g id="ARC_6_">
		<path class="st2" d="M708.3,281.3c-1.2,41.9-33.3,76.5-75,80.8c-45.9,4.7-87-28.7-91.7-74.6V156.3h-25.4v-37.5h25.4V14.4
			c0-6.9,5.6-12.5,12.5-12.5h37.5v116.9c0,0,237.5,0,237.5,0c6.9,0,12.5,5.6,12.5,12.5v25c0,0-250,0-250,0v128.1
			c3,18.3,20.3,30.7,38.6,27.7c15.4-2.5,27-15.2,28.1-30.8H708"/>
	</g>
	<g id="ARC_5_">
		<path class="st2" d="M678.2,231.5c-1.3,3-3.7,5.4-6.8,6.6c-8.2,2.6-17,2.9-25.3,0.8c-16.1-3.8-28.8-16.3-32.8-32.4
			c-1.9-6.2-2.9-12.5-3.1-19c-1.4-22.9-1.4-45.9,0-68.7l19.4-19.4c-2,30.7-2.3,61.5-0.9,92.3c1,13.1,10.3,24.1,23.1,27.2
			c5.2,0.5,10.4,0.6,15.6,0.1c1.2-0.1,2.4,0.1,3.6,0.5c2.8,1,5.2,3,6.8,5.6C678.9,227.1,679,229.4,678.2,231.5z"/>
	</g>
	<g id="ARC_4_">
		<path class="st2" d="M738.5,49.1c-10-10.3-23.3-16.9-37.6-18.7c-15.7-2.2-31.8,0.7-45.7,8.4c-27.9,17.1-44.8,47.4-44.9,80.1
			c0,0,200.3,0,200.3,0c4.3-0.1,8.3-2.5,10.4-6.3c0.5-1.6,0.6-3.3,0.3-5c-1.4-3.8-5-6.5-9.1-6.8c0,0-3.7-0.4-3.7-0.4
			c-0.1,0-0.2,0-0.3-0.1c-0.5-0.2-0.8-0.8-0.6-1.3c10-23.8,9.1-50.7-2.4-73.8c-0.3-0.6-1-0.9-1.7-0.6c-0.2,0.1-0.4,0.3-0.6,0.6
			c-3.1,6.3-6.3,12.6-9.3,18.9c-1.3,2.6-3.9,4.4-6.8,4.6c-3.6,0.3-7.2,0.2-10.8-0.1c-2.2-0.2-4-1.5-5-3.4c-3.4-7-7.3-13.8-11.5-20.3
			c-0.5-0.8-1.5-1-2.3-0.5c-0.2,0.1-0.4,0.3-0.5,0.5c-4.5,7.5-8.6,15.2-12.4,23.1c-0.2,0.4-0.5,0.8-0.9,1.1
			c-1.5,1.4-3.9,1.2-5.2-0.3"/>
	</g>
</g>
</svg>
